<svg width="17" height="16" viewBox="0 0 17 16" fill="none" xmlns="http://www.w3.org/2000/svg">
<g clip-path="url(#clip0_519_1020)">
<g clip-path="url(#clip1_519_1020)">
<path fill-rule="evenodd" clip-rule="evenodd" d="M8.17382 15.1425L5.01011 13.4152C3.69977 12.7424 1.38601 11.0853 1.03187 7.9721L1.01301 3.98517C1.01016 3.38286 1.45245 2.84396 2.1181 2.63872L7.61067 0.945183C7.97453 0.832999 8.37312 0.832999 8.73697 0.945183L14.2295 2.63872C14.8952 2.84396 15.3375 3.38286 15.3346 3.98517L15.3158 7.9721C14.9616 11.0853 12.6479 12.7424 11.3375 13.4152L8.17382 15.1425ZM11.8737 14.1459C13.343 13.3884 15.9291 11.5274 16.3241 8.05497L16.3286 8.01536L16.3476 3.98863C16.3522 3.02309 15.6432 2.15864 14.575 1.82929L9.08241 0.135749C8.49538 -0.0452497 7.85227 -0.0452497 7.26524 0.135749L1.77266 1.82929C0.704491 2.15864 -0.00454497 3.02309 2.1932e-05 3.98863L0.0190696 8.01536L0.0235757 8.05497C0.418578 11.5274 3.00463 13.3884 4.474 14.1459L8.17382 16.1659L11.8737 14.1459Z" fill="white"/>
<path d="M8.17353 15.1425L5.00982 13.4152C3.69948 12.7424 1.38572 11.0853 1.03157 7.97211L1.01271 3.98518C1.00986 3.38287 1.45215 2.84398 2.1178 2.63873L7.61038 0.945195C7.97423 0.833006 8.37282 0.833006 8.73667 0.945195L14.2293 2.63873C14.8949 2.84398 15.3372 3.38287 15.3344 3.98518L15.3155 7.97211C14.9614 11.0853 12.6476 12.7424 11.3373 13.4152L8.17353 15.1425Z" fill="url(#paint0_linear_519_1020)"/>
<path d="M8.17382 3.44415L9.7171 5.99465L13.1689 6.4041L10.6707 8.3899L11.2604 11.1936L8.17382 9.86935L5.08727 11.1936L5.67688 8.3899L3.17871 6.4041L6.63055 5.99465L8.17382 3.44415Z" fill="white"/>
</g>
</g>
<defs>
<linearGradient id="paint0_linear_519_1020" x1="14.6676" y1="3.51262" x2="2.16809" y2="12.9994" gradientUnits="userSpaceOnUse">
<stop stop-color="#F86C1D"/>
<stop offset="1" stop-color="#E72572"/>
</linearGradient>
<clipPath id="clip0_519_1020">
<rect width="17" height="17" fill="white"/>
</clipPath>
<clipPath id="clip1_519_1020">
<rect width="17" height="17" fill="white"/>
</clipPath>
</defs>
</svg>
